<?xml version="1.0" encoding="UTF-8"?>
<!DOCTYPE svg PUBLIC "-//W3C//DTD SVG 1.1//EN" "http://www.w3.org/Graphics/SVG/1.1/DTD/svg11.dtd">
<!-- Creator: CorelDRAW 2019 (64 Bit) -->
<svg xmlns="http://www.w3.org/2000/svg" xml:space="preserve" width="180px" height="180px" version="1.1" style="shape-rendering:geometricPrecision; text-rendering:geometricPrecision; image-rendering:optimizeQuality; fill-rule:evenodd; clip-rule:evenodd"
viewBox="0 0 589.92 589.92"
 xmlns:xlink="http://www.w3.org/1999/xlink">
 <defs>
  <style type="text/css">
   <![CDATA[
    .fil1 {fill:#00BE68}
    .fil0 {fill:#00D372}
    .fil2 {fill:#FEFFFE}
   ]]>
  </style>
 </defs>
 <g id="Camada_x0020_1">
  <metadata id="CorelCorpID_0Corel-Layer"/>
  <polygon class="fil0" points="0,589.92 589.92,589.92 589.92,0 0,0 "/>
  <path class="fil1" d="M138.87 152.85c11.41,0.63 14.93,2.27 25.37,3.39 -4.05,0.19 -2.85,-0.06 -5.07,1.47 4.17,0.39 9.97,3.12 12.39,5.47 4.02,3.89 4.9,7.09 5.34,12.47 4.09,2.22 4.43,0.35 6.29,4.18l18.47 28.94c3.32,6.38 4.98,14.69 10.45,19.61 1.57,1.4 1.53,0.93 3.24,1.89 0.84,7.83 3.09,8.76 6.4,14.42 1.64,2.8 1.18,1.07 1.56,5.64 3.16,-0.83 2.25,-1.22 2.86,-1.07l8.65 16.87c3.69,4.66 -4.47,-2.72 2.77,1.92l4.76 5.77c6.73,10.22 4.93,27.95 -2.1,37.71 -4.37,6.08 -1.16,3.55 -8.94,13.56l-5.63 9.75c-0.9,1.09 -0.51,0.21 -1.6,2.29 -0.94,1.8 -0.31,1.74 -1.66,4.26l-18.8 29.6c-2.4,2.69 -3.76,2.81 -7.39,3.29 -0.32,3.88 0.08,3.82 -1.47,6.84l-4.37 7.56c-0.12,0.23 -0.28,0.53 -0.41,0.76 -0.12,0.22 -0.31,0.51 -0.44,0.72 -0.18,0.31 -0.77,1.11 -0.96,1.41l-13.6 22.1c-4.93,7.79 -7.42,11.53 -15.32,16.21l-1.53 1.31c-2.12,2.02 -1.74,1.72 -4.69,3.21l-5.45 2.81c-2.01,0.75 -4.74,0.78 -7.87,1.5 -1.04,0.24 -2.45,0.77 -2.82,0.89l-11.87 2.75 1.59 18.14c0.23,0.15 1.26,0.85 1.57,1.03 4.07,2.33 8.97,2.28 13.85,2.28 15.77,0 89.96,2.05 97.74,-1.52 0.49,-0.22 3.06,-1.82 3.87,-2.2l0.27 -16.88c-6.08,-1.53 -11.7,-4.32 -16.7,-7.59 -0.84,-11.12 -0.16,-11.53 4.23,-18.71l18.52 -31.24c0.22,-0.28 0.82,-1.11 1.03,-1.39 4.78,-6.49 4.42,-9.18 7.24,-15.24 3.99,-4.23 -2.55,3.9 2.03,-1.1l9.76 -15.81c0.58,-1.1 2.33,-4.11 2.6,-4.47 2.47,-3.27 4.57,-2.94 9.95,-2.64 0.63,0.98 1.24,2.13 2.17,3.53 1.06,1.59 0.43,0.51 1.47,2.12l1.34 2.2c0.51,0.95 4.77,8.28 5.5,5.6 0.39,3.38 3.5,11.99 5.08,14.81 0.89,1.59 3.08,4.51 3.88,5.69l9.73 13.84c0.14,0.22 0.34,0.5 0.47,0.72 0.13,0.21 0.33,0.49 0.46,0.71l4.12 6.75c2.66,3.28 -1.62,3.36 4.51,2.59 1.7,18.15 10.98,3.49 8.67,32.04l-6.72 4.03c-6.87,2.78 -10.12,1.66 -10.41,11.31 -0.08,2.64 0.39,6.39 0.57,9.13 6.69,3.16 8.63,3.72 17.34,3.72 16.1,0 116.56,1.57 125.79,-0.47 2.41,-0.53 2.48,-0.78 3.59,-1.36l4.02 -2.62 0.32 -15.43c-0.6,-0.21 -1.05,-0.83 -1.21,-0.57 -0.15,0.26 -0.65,-0.43 -0.87,-0.55 -5.56,-2.96 1.62,0.62 -1.75,-0.93 -7.12,-3.28 -15.37,-3.37 -23.49,-5.31l-6.89 -3.3c-6.33,-4.17 -15.2,-15.44 -17.15,-22.89 -0.46,-1.77 -0.48,-3.64 -0.64,-5.46l-4.86 -0.21c-0.42,-3.37 -0.06,-1.56 -1.41,-4.02 -1.14,-2.08 -0.51,-0.61 -1.45,-2.11l-18.62 -31.13c-2.99,-6.77 -5.52,-16.14 -10.29,-22.01l-8.58 -12.79c-0.15,-0.2 -0.33,-0.51 -0.49,-0.72l-0.97 -1.42c-0.15,-0.2 -0.37,-0.48 -0.52,-0.67l-1.71 -1.79c-0.16,-0.18 -0.4,-0.42 -0.56,-0.6 -5.93,-6.51 -4.68,-7.7 -8.71,-13.58 -0.1,-0.14 -0.33,-0.41 -0.43,-0.54l-13.99 -21.92c-6.78,-13.52 3.73,-26.91 6.42,-30.18 0.16,-0.19 0.4,-0.45 0.56,-0.65 0.15,-0.2 0.38,-0.47 0.54,-0.67l6.34 -11.52c0.12,-0.17 0.36,-0.42 0.49,-0.58 6.2,-7.28 3.26,-3.35 7.39,-13.18 2.36,-5.61 -0.63,-0.96 2.37,-3.34l2.43 -2.09c0.97,-1.11 0.72,-0.88 1.56,-2.19 0.2,-0.31 1.16,-2.01 1.34,-2.32l12.33 -18.43c3.43,-5.16 6.42,-12.42 10.5,-16.59l21.57 -27.22c4.77,-4.98 13.18,-4.92 15.71,-7.41l0.21 -0.86c-0.11,-0.78 0.01,-0.38 -0.37,-0.26 6.09,-1.22 12.8,-1.34 18.48,-3.44l2.46 -1.12c2.32,-1.1 3.73,-1.75 5.79,-2.74l0.26 -16.66 -6.84 -3.35c-8.8,-2.16 -95.94,-0.54 -115.14,0.26 -0.3,3.7 -0.77,7.29 -0.85,10.84 -0.36,16.47 4.5,9.05 12.04,13.48l5.74 3.12c0.65,10.1 0.07,13.67 -5.13,21.36l-3.52 7.3c-0.9,1.47 -0.43,0.63 -2.16,2.22 -0.18,0.16 -0.47,0.37 -0.66,0.54 -0.18,0.17 -0.46,0.39 -0.65,0.58l-13.11 19.05c-0.19,0.28 -0.85,1.02 -1.05,1.32 -0.9,1.42 -0.59,-0.29 -1.59,3.44 -0.29,1.07 -0.46,3.81 -0.6,5.05 -7.55,1.6 -4.52,-0.19 -7.16,4.7 -5.06,9.36 -11.59,12.19 -16.63,1.83 -4.79,1.02 -2.85,3.14 -3.98,-1.25l-23.73 -40.87c-1.35,-2.22 -1.25,-1.74 -2.31,-2.83 -2.72,-2.79 -1.4,0.86 -2.39,-2.26l-0.59 -20.43c6.68,-3.86 15.58,-2.38 20.88,-5.45 3.02,-2.34 9.34,-22.4 -8.22,-23.28l-9.58 -0.07c-44.98,0 -90.08,-1.1 -135.03,0.7 -2.53,4.43 -3.61,8.25 -3.04,15.37 0.54,6.8 3.91,6.79 7.5,11.53z"/>
  <path class="fil2" d="M138.32 142.96c21.58,4.34 25.41,-2.58 44.22,22.29 3.79,5 78.08,123.03 78.08,125.55 0.01,1.4 -73.88,123.02 -81.88,132.44 -9.95,11.72 -25.04,23.11 -49.22,23.23l-0.35 10.38 111.33 -0.02 0.21 -10.24c-42.7,-2.03 -18.06,-28.09 -0.11,-58.8 6.64,-11.35 12.76,-21.61 19.56,-32.72 7.44,-12.14 15,-20.05 15.06,-37.98l61.77 102.07c12.15,23.43 -0.38,24.3 -19.35,27.78l-0.15 9.42 142.93 0.49 0.31 -10.38c-43.36,0.03 -49.26,-24.32 -63.9,-48.03l-70.81 -117.13c1.89,-5.17 46.91,-74.37 51.14,-81.02 20.26,-31.87 27.19,-52.18 74.69,-57.09l0.28 -9.87 -113.05 -0.22 -0.1 9.8c14,3.24 28.85,2.66 21.73,22.04 -3.06,8.33 -29.3,48.8 -35.83,59.05 -6.42,10.08 -14.58,18.54 -13.39,34.04 -0.28,-0.21 -0.68,-0.91 -0.8,-0.68l-37.69 -61.51c-4.63,-7.6 -15.1,-23.24 -17.21,-32.55 -4.17,-18.49 14.14,-18.51 28.52,-20.09l0.2 -9.89 -146.07 -0.22 -0.12 9.86z"/>
 </g>
</svg>
